<svg id="Layer_1" data-name="Layer 1" xmlns="http://www.w3.org/2000/svg" viewBox="0 0 756 108"><defs><style>.cls-1{fill:#050606;}.cls-2{fill:#82331c;}</style></defs><title>Artboard 2</title><circle class="cls-1" cx="495.12" cy="54" r="38.54"/><path class="cls-1" d="M576,16.21V51.53h-3.41V16.21H541.79V62.34a30.2,30.2,0,0,0,60.4,0V16.21Z"/><polygon class="cls-1" points="716.29 59.22 716.29 51.84 726.54 51.84 726.54 39.6 714.57 39.6 714.57 36.19 737.42 36.19 737.42 16.21 701.89 16.21 674.44 16.21 674.44 35.42 674.44 36.19 674.44 39.6 674.44 47.9 674.44 50.68 674.44 51.84 674.44 59.22 674.44 63.15 674.44 91.78 701.89 91.78 738 91.78 738 59.22 716.29 59.22"/><path class="cls-1" d="M652.71,42.79l11.47-11.46a26,26,0,1,0-40.62,29.93L612.28,72.54a27,27,0,1,0,40.43-29.75Z"/><path class="cls-2" d="M388.13,16.21V91.79h15.21V72.17h6.72V91.79h37.5V16.21Zm49.63,27h-8.28V28.48h8.28Z"/><path class="cls-1" d="M68.11,51.13A19.8,19.8,0,0,0,55.33,16.21H18V91.79H58.76a21.4,21.4,0,0,0,9.35-40.66Z"/><path class="cls-1" d="M148.09,39a22.82,22.82,0,0,0-22.81-22.82H90.22V91.79h57.87L134.33,60A22.83,22.83,0,0,0,148.09,39Z"/><rect class="cls-1" x="158.92" y="16.21" width="27.45" height="75.57"/><polygon class="cls-1" points="327.49 52.76 345.85 16.21 313.91 16.21 287.57 16.21 287.57 42.5 287.57 65.5 287.57 91.78 313.91 91.78 349.31 91.78 327.49 52.76"/><path class="cls-1" d="M260.61,55.08V49.63H274a38.7,38.7,0,1,0,.21,5.45Z"/></svg>