<?xml version="1.0" encoding="UTF-8" standalone="no"?>
<!DOCTYPE svg PUBLIC "-//W3C//DTD SVG 1.1//EN" "http://www.w3.org/Graphics/SVG/1.1/DTD/svg11.dtd">
<svg width="100%" height="100%" viewBox="0 0 180 60" version="1.1" xmlns="http://www.w3.org/2000/svg" xmlns:xlink="http://www.w3.org/1999/xlink" xml:space="preserve" xmlns:serif="http://www.serif.com/" style="fill-rule:evenodd;clip-rule:evenodd;stroke-linejoin:round;stroke-miterlimit:2;">
    <g transform="matrix(1,0,0,1,-450,-300)">
        <rect id="BRIET-Diagram-Tasks" serif:id="BRIET Diagram Tasks" x="0" y="0" width="1080" height="1080" style="fill:none;"/>
        <g id="BRIET-Diagram-Tasks1" serif:id="BRIET Diagram Tasks">
            <g transform="matrix(1.5,0,0,0.5,360,270)">
                <rect x="60" y="60" width="120" height="120" style="fill:#ff002b;"/>
            </g>
            <g transform="matrix(4.2735,0,0,4.2735,-927.236,-508.231)">
                <g transform="matrix(12,0,0,12,326.677,200.358)">
                    <path d="M0.487,-0.36C0.528,-0.351 0.56,-0.331 0.585,-0.3C0.61,-0.268 0.622,-0.232 0.622,-0.191C0.622,-0.132 0.602,-0.086 0.561,-0.052C0.52,-0.017 0.462,-0 0.389,-0L0.062,-0L0.062,-0.702L0.378,-0.702C0.449,-0.702 0.505,-0.686 0.546,-0.653C0.586,-0.62 0.606,-0.576 0.606,-0.52C0.606,-0.479 0.595,-0.444 0.574,-0.417C0.552,-0.39 0.523,-0.371 0.487,-0.36ZM0.233,-0.418L0.345,-0.418C0.373,-0.418 0.395,-0.424 0.41,-0.437C0.425,-0.449 0.432,-0.467 0.432,-0.491C0.432,-0.515 0.425,-0.533 0.41,-0.546C0.395,-0.559 0.373,-0.565 0.345,-0.565L0.233,-0.565L0.233,-0.418ZM0.359,-0.138C0.388,-0.138 0.41,-0.145 0.426,-0.158C0.441,-0.17 0.449,-0.189 0.449,-0.214C0.449,-0.239 0.441,-0.258 0.425,-0.272C0.408,-0.286 0.386,-0.293 0.357,-0.293L0.233,-0.293L0.233,-0.138L0.359,-0.138Z" style="fill:#fff;fill-rule:nonzero;"/>
                </g>
                <g transform="matrix(12,0,0,12,334.585,200.358)">
                    <path d="M0.42,-0L0.274,-0.265L0.233,-0.265L0.233,-0L0.062,-0L0.062,-0.702L0.349,-0.702C0.404,-0.702 0.452,-0.692 0.491,-0.673C0.53,-0.654 0.559,-0.627 0.578,-0.594C0.597,-0.56 0.607,-0.522 0.607,-0.481C0.607,-0.434 0.594,-0.393 0.568,-0.356C0.541,-0.319 0.502,-0.293 0.451,-0.278L0.613,-0L0.42,-0ZM0.233,-0.386L0.339,-0.386C0.37,-0.386 0.394,-0.394 0.41,-0.409C0.425,-0.424 0.433,-0.446 0.433,-0.474C0.433,-0.501 0.425,-0.522 0.41,-0.537C0.394,-0.552 0.37,-0.56 0.339,-0.56L0.233,-0.56L0.233,-0.386Z" style="fill:#fff;fill-rule:nonzero;"/>
                </g>
                <g transform="matrix(12,0,0,12,342.409,200.358)">
                    <rect x="0.062" y="-0.702" width="0.171" height="0.702" style="fill:#fff;fill-rule:nonzero;"/>
                </g>
                <g transform="matrix(12,0,0,12,345.949,200.358)">
                    <path d="M0.233,-0.565L0.233,-0.423L0.462,-0.423L0.462,-0.291L0.233,-0.291L0.233,-0.137L0.492,-0.137L0.492,-0L0.062,-0L0.062,-0.702L0.492,-0.702L0.492,-0.565L0.233,-0.565Z" style="fill:#fff;fill-rule:nonzero;"/>
                </g>
                <g transform="matrix(12,0,0,12,352.441,200.358)">
                    <path d="M0.567,-0.702L0.567,-0.565L0.381,-0.565L0.381,-0L0.21,-0L0.21,-0.565L0.024,-0.565L0.024,-0.702L0.567,-0.702Z" style="fill:#fff;fill-rule:nonzero;"/>
                </g>
            </g>
        </g>
    </g>
</svg>
